<svg xmlns="http://www.w3.org/2000/svg" width="96.804" height="61.4" viewBox="0 0 96.804 61.4">
  <g id="Groupe_10" data-name="Groupe 10" transform="translate(-143.091 -374.35)">
    <path id="Tracé_16" data-name="Tracé 16" d="M177.867,432.258a11.059,11.059,0,0,1-7.618,2.992,10.7,10.7,0,0,1-10.471-7.663l-.05-.19h-13.7a2.376,2.376,0,0,1-2.441-2.3V377.148a2.376,2.376,0,0,1,2.441-2.3h58.831a2.374,2.374,0,0,1,2.439,2.3V387.2h18.692l.24.029a3.5,3.5,0,0,1,.655.169l.432.227a3.375,3.375,0,0,1,.33.271,3.921,3.921,0,0,1,.289.339l11.081,16.388.227.436.062.227.074.413.01,19.4a2.374,2.374,0,0,1-2.439,2.3H232.2l-.054.19A10.812,10.812,0,0,1,221.7,435.25c-4.625,0-8.939-1.964-11.045-7.729l-30.091-.06A10.088,10.088,0,0,1,177.867,432.258ZM221.7,419.542a5.566,5.566,0,1,0,5.9,5.557A5.746,5.746,0,0,0,221.7,419.542Zm-51.5,0a6.064,6.064,0,0,0-4.167,1.64,5.368,5.368,0,0,0-1.72,3.932,5.747,5.747,0,0,0,5.9,5.54,6.068,6.068,0,0,0,4.186-1.636,5.357,5.357,0,0,0,1.72-3.934,5.765,5.765,0,0,0-5.92-5.542Zm51.5-4.594a10.812,10.812,0,0,1,10.442,7.663l.054.19h2.319V408.135H207.3V422.8h3.905l.052-.19A10.814,10.814,0,0,1,221.7,414.949Zm-51.484,0a10.818,10.818,0,0,1,10.445,7.663l.052.19h21.709V379.445H148.471V422.8h11.256l.052-.19a10.836,10.836,0,0,1,10.44-7.663ZM207.3,403.542h25.209l-7.867-11.63-17.342-.118Z" transform="translate(0 0)" fill="#d81e05" stroke="#fff" stroke-width="1"/>
  </g>
</svg>
