<svg xmlns="http://www.w3.org/2000/svg" width="43.8" height="62.176" viewBox="0 0 43.8 62.176">
  <g id="Groupe_12" data-name="Groupe 12" transform="translate(-79.419 -105.882)">
    <path id="Tracé_18" data-name="Tracé 18" d="M96.342,131.886a9.107,9.107,0,1,0-6.513-2.678A9.063,9.063,0,0,0,96.342,131.886Zm-.062-15.359h.049a6.246,6.246,0,0,1,4.423,10.654,6.321,6.321,0,0,1-4.458,1.771,6.213,6.213,0,1,1-.013-12.425Z" transform="translate(4.995 5.01)" fill="#d81e05" stroke="#d81e05" stroke-width="1"/>
    <path id="Tracé_19" data-name="Tracé 19" d="M101.318,106.382a21.422,21.422,0,0,0-21.4,21.4,22.044,22.044,0,0,0,3.629,13.173c2.734,4.377,16.458,24.31,16.591,24.5l1.179,1.719,1.182-1.719c.135-.193,13.835-20.1,16.59-24.5a22.062,22.062,0,0,0,3.629-13.173A21.422,21.422,0,0,0,101.318,106.382Zm0,2.869a18.555,18.555,0,0,1,18.535,18.533,19.235,19.235,0,0,1-3.2,11.65c-2.359,3.779-13.293,19.7-15.338,22.676-2.594-3.779-13.064-19.038-15.337-22.676a19.236,19.236,0,0,1-3.2-11.654A18.553,18.553,0,0,1,101.318,109.251Z" transform="translate(0)" fill="#d81e05" stroke="#d81e05" stroke-width="1"/>
  </g>
</svg>
